# xmcd
#
# Track frame offsets: 
#        150
#        20540
#        43340
#        66534
#        96006
#        117237
#        134048
#        156707
#        190079
#
# Disc length: 2862 seconds
#
# Revision: 0
# Processed by: cddbd v1.5.2PL0 Copyright (c) Steve Scherf et al.
# Submitted via: ExactAudioCopy v0.95b4
#
DISCID=8a0b2c09
DTITLE=Peter R.Ericson - The blue album
DYEAR=2003
DGENRE=Blues
TTITLE0=Berlin Alexanderplatz, morning
TTITLE1=Silenty into the future
TTITLE2=Hello Martin (the russian)
TTITLE3=The winter man
TTITLE4=Danke, kranke baby
TTITLE5=Duncan and the samba
TTITLE6=We northen boys
TTITLE7=Three short pieces for Paolo
TTITLE8=The roses
EXTD=
EXTT0=
EXTT1=
EXTT2=
EXTT3=
EXTT4=
EXTT5=
EXTT6=
EXTT7=
EXTT8=
PLAYORDER=
